<svg width="1362" height="1362" viewBox="0 0 1362 1362" fill="none" xmlns="http://www.w3.org/2000/svg">
<path d="M680.94 659.963C692.508 659.963 701.917 669.372 701.917 680.94C701.917 692.508 692.508 701.917 680.94 701.917C669.372 701.917 659.963 692.508 659.963 680.94C659.963 669.372 669.372 659.963 680.94 659.963ZM680.94 651.581C664.72 651.581 651.581 664.72 651.581 680.94C651.581 697.16 664.72 710.299 680.94 710.299C697.16 710.299 710.299 697.16 710.299 680.94C710.299 664.72 697.139 651.581 680.94 651.581Z" fill="#FF009D"/>
<path d="M680.94 638.944C704.096 638.944 722.936 657.784 722.936 680.94C722.936 704.096 704.096 722.936 680.94 722.936C657.784 722.936 638.944 704.096 638.944 680.94C638.944 657.784 657.784 638.944 680.94 638.944ZM680.94 630.562C653.111 630.562 630.562 653.111 630.562 680.94C630.562 708.769 653.111 731.318 680.94 731.318C708.769 731.318 731.318 708.769 731.318 680.94C731.297 653.111 708.748 630.562 680.94 630.562Z" fill="#FF009D"/>
<path d="M680.94 617.926C715.685 617.926 743.954 646.195 743.954 680.94C743.954 715.685 715.685 743.933 680.94 743.933C646.195 743.933 617.926 715.664 617.926 680.919C617.926 646.174 646.195 617.926 680.94 617.926ZM680.94 609.543C641.501 609.543 609.543 641.501 609.543 680.94C609.543 720.379 641.501 752.337 680.94 752.337C720.379 752.337 752.337 720.379 752.337 680.94C752.316 641.501 720.358 609.543 680.94 609.543Z" fill="#FF009D"/>
<path d="M680.94 596.907C727.273 596.907 764.973 634.607 764.973 680.94C764.973 727.273 727.273 764.973 680.94 764.973C634.607 764.973 596.907 727.273 596.907 680.94C596.907 634.586 634.586 596.907 680.94 596.907ZM680.94 588.525C629.912 588.525 588.525 629.891 588.525 680.94C588.525 731.968 629.891 773.355 680.94 773.355C731.988 773.355 773.355 731.988 773.355 680.94C773.334 629.891 731.967 588.525 680.94 588.525Z" fill="#FF009D"/>
<path d="M680.94 575.888C738.862 575.888 785.992 623.018 785.992 680.94C785.992 738.862 738.862 785.992 680.94 785.992C623.018 785.992 575.888 738.862 575.888 680.94C575.888 623.018 622.997 575.888 680.94 575.888ZM680.94 567.506C618.303 567.506 567.506 618.282 567.506 680.94C567.506 743.577 618.282 794.374 680.94 794.374C743.598 794.374 794.374 743.598 794.374 680.94C794.353 618.282 743.577 567.506 680.94 567.506Z" fill="#FF009D"/>
<path d="M680.94 554.869C750.451 554.869 807.011 611.429 807.011 680.94C807.011 750.451 750.451 807.011 680.94 807.011C611.429 807.011 554.87 750.451 554.87 680.94C554.87 611.408 611.408 554.869 680.94 554.869ZM680.94 546.487C606.693 546.487 546.487 606.672 546.487 680.94C546.487 755.187 606.672 815.393 680.94 815.393C755.187 815.393 815.393 755.208 815.393 680.94C815.372 606.672 755.187 546.487 680.94 546.487Z" fill="#FF009D"/>
<path d="M680.94 533.851C762.039 533.851 828.029 599.841 828.029 680.94C828.029 762.039 762.039 828.029 680.94 828.029C599.841 828.029 533.851 762.039 533.851 680.94C533.851 599.841 599.82 533.851 680.94 533.851ZM680.94 525.468C595.084 525.468 525.468 595.084 525.468 680.94C525.468 766.796 595.084 836.412 680.94 836.412C766.796 836.412 836.412 766.796 836.412 680.94C836.391 595.063 766.796 525.468 680.94 525.468Z" fill="#FF009D"/>
<path d="M680.94 512.832C773.628 512.832 849.048 588.252 849.048 680.94C849.048 773.628 773.628 849.048 680.94 849.048C588.252 849.048 512.832 773.628 512.832 680.94C512.832 588.231 588.231 512.832 680.94 512.832ZM680.94 504.45C583.474 504.45 504.45 583.474 504.45 680.94C504.45 778.406 583.474 857.43 680.94 857.43C778.406 857.43 857.43 778.406 857.43 680.94C857.409 583.453 778.406 504.45 680.94 504.45Z" fill="#FF009D"/>
<path d="M680.94 491.813C785.216 491.813 870.067 576.664 870.067 680.94C870.067 785.216 785.216 870.067 680.94 870.067C576.663 870.067 491.813 785.216 491.813 680.94C491.813 576.664 576.643 491.813 680.94 491.813ZM680.94 483.431C571.865 483.431 483.431 571.865 483.431 680.94C483.431 790.015 571.865 878.449 680.94 878.449C790.015 878.449 878.449 790.015 878.449 680.94C878.428 571.844 790.015 483.431 680.94 483.431Z" fill="#FF009D"/>
<path d="M680.94 470.795C796.805 470.795 891.086 565.054 891.086 680.94C891.086 796.805 796.826 891.086 680.94 891.086C565.054 891.086 470.795 796.826 470.795 680.94C470.795 565.054 565.054 470.795 680.94 470.795ZM680.94 462.412C560.255 462.412 462.412 560.255 462.412 680.94C462.412 801.625 560.255 899.468 680.94 899.468C801.625 899.468 899.468 801.625 899.468 680.94C899.447 560.234 801.625 462.412 680.94 462.412Z" fill="#FF009D"/>
<path d="M680.94 449.776C742.676 449.776 800.724 473.812 844.396 517.484C888.047 561.135 912.104 619.204 912.104 680.94C912.104 742.676 888.068 800.724 844.396 844.396C800.745 888.047 742.676 912.104 680.94 912.104C619.204 912.104 561.156 888.068 517.484 844.396C473.812 800.724 449.776 742.676 449.776 680.94C449.776 619.204 473.812 561.156 517.484 517.484C561.135 473.812 619.183 449.776 680.94 449.776ZM680.94 441.393C548.646 441.393 441.393 548.646 441.393 680.94C441.393 813.234 548.646 920.487 680.94 920.487C813.234 920.487 920.487 813.234 920.487 680.94C920.487 548.646 813.234 441.393 680.94 441.393Z" fill="#FF009D"/>
<path d="M680.94 428.757C748.292 428.757 811.621 454.994 859.253 502.627C906.886 550.259 933.123 613.588 933.123 680.94C933.123 748.292 906.886 811.621 859.253 859.254C811.621 906.886 748.292 933.123 680.94 933.123C613.588 933.123 550.259 906.886 502.626 859.254C454.994 811.621 428.757 748.292 428.757 680.94C428.757 613.588 454.994 550.259 502.626 502.627C550.238 454.973 613.567 428.757 680.94 428.757ZM680.94 420.375C537.036 420.375 420.375 537.036 420.375 680.94C420.375 824.844 537.036 941.505 680.94 941.505C824.844 941.505 941.505 824.844 941.505 680.94C941.505 537.036 824.823 420.375 680.94 420.375Z" fill="#FF009D"/>
<path d="M680.94 407.738C753.908 407.738 822.518 436.155 874.111 487.748C925.705 539.341 954.121 607.951 954.121 680.919C954.121 753.887 925.705 822.497 874.111 874.09C822.518 925.684 753.908 954.1 680.94 954.1C607.972 954.1 539.362 925.684 487.769 874.09C436.175 822.497 407.759 753.887 407.759 680.919C407.759 607.951 436.175 539.341 487.769 487.748C539.341 436.155 607.951 407.738 680.94 407.738ZM680.94 399.356C525.427 399.356 399.356 525.427 399.356 680.94C399.356 836.454 525.427 962.503 680.94 962.503C836.454 962.503 962.503 836.433 962.503 680.94C962.503 525.447 836.433 399.356 680.94 399.356Z" fill="#FF009D"/>
<path d="M680.94 386.72C759.524 386.72 833.415 417.315 888.99 472.89C944.565 528.465 975.16 602.335 975.16 680.94C975.16 759.524 944.565 833.415 888.99 888.99C833.415 944.565 759.545 975.16 680.94 975.16C602.335 975.16 528.465 944.565 472.89 888.99C417.315 833.415 386.72 759.545 386.72 680.94C386.72 602.355 417.315 528.465 472.89 472.89C528.465 417.315 602.335 386.72 680.94 386.72ZM680.94 378.337C513.817 378.337 378.337 513.817 378.337 680.94C378.337 848.063 513.817 983.543 680.94 983.543C848.063 983.543 983.543 848.063 983.543 680.94C983.543 513.817 848.042 378.337 680.94 378.337Z" fill="#FF009D"/>
<path d="M680.94 365.701C765.141 365.701 844.312 398.497 903.848 458.032C963.383 517.568 996.179 596.739 996.179 680.94C996.179 765.141 963.383 844.312 903.848 903.848C844.312 963.383 765.141 996.179 680.94 996.179C596.739 996.179 517.568 963.383 458.032 903.848C398.497 844.312 365.701 765.141 365.701 680.94C365.701 596.739 398.497 517.568 458.032 458.032C517.568 398.497 596.718 365.701 680.94 365.701ZM680.94 357.319C502.207 357.319 357.319 502.207 357.319 680.94C357.319 859.673 502.207 1004.56 680.94 1004.56C859.673 1004.56 1004.56 859.673 1004.56 680.94C1004.56 502.207 859.652 357.319 680.94 357.319Z" fill="#FF009D"/>
<path d="M680.94 344.682C770.757 344.682 855.188 379.657 918.705 443.175C982.222 506.692 1017.2 591.123 1017.2 680.94C1017.2 770.757 982.222 855.188 918.705 918.705C855.188 982.222 770.757 1017.2 680.94 1017.2C591.123 1017.2 506.692 982.222 443.175 918.705C379.657 855.188 344.682 770.757 344.682 680.94C344.682 591.123 379.657 506.692 443.175 443.175C506.671 379.657 591.123 344.682 680.94 344.682ZM680.94 336.3C490.598 336.3 336.3 490.598 336.3 680.94C336.3 871.282 490.598 1025.58 680.94 1025.58C871.282 1025.58 1025.58 871.282 1025.58 680.94C1025.58 490.598 871.261 336.3 680.94 336.3Z" fill="#FF009D"/>
<path d="M680.94 323.663C776.373 323.663 866.085 360.818 933.563 428.296C1001.04 495.774 1038.2 585.486 1038.2 680.919C1038.2 776.352 1001.04 866.064 933.563 933.542C866.085 1001.02 776.373 1038.17 680.94 1038.17C585.507 1038.17 495.795 1001.02 428.317 933.542C360.839 866.064 323.684 776.352 323.684 680.919C323.684 585.486 360.839 495.774 428.317 428.296C495.774 360.818 585.507 323.663 680.94 323.663ZM680.94 315.281C478.988 315.281 315.281 478.988 315.281 680.94C315.281 882.892 478.988 1046.6 680.94 1046.6C882.892 1046.6 1046.6 882.892 1046.6 680.94C1046.6 478.988 882.871 315.281 680.94 315.281Z" fill="#FF009D"/>
<path d="M680.94 302.645C732.009 302.645 781.549 312.641 828.176 332.36C873.231 351.409 913.676 378.694 948.421 413.438C983.165 448.183 1010.45 488.649 1029.5 533.683C1049.22 580.31 1059.21 629.85 1059.21 680.919C1059.21 731.989 1049.22 781.528 1029.5 828.155C1010.45 873.21 983.165 913.655 948.421 948.4C913.676 983.145 873.21 1010.43 828.176 1029.48C781.549 1049.2 732.009 1059.19 680.94 1059.19C629.871 1059.19 580.331 1049.2 533.704 1029.48C488.649 1010.43 448.204 983.145 413.459 948.4C378.714 913.655 351.43 873.189 332.381 828.155C312.662 781.528 302.666 731.989 302.666 680.919C302.666 629.85 312.662 580.31 332.381 533.683C351.43 488.628 378.714 448.183 413.459 413.438C448.204 378.694 488.67 351.409 533.704 332.36C580.31 312.641 629.85 302.645 680.94 302.645ZM680.94 294.262C467.379 294.262 294.262 467.379 294.262 680.94C294.262 894.501 467.379 1067.62 680.94 1067.62C894.501 1067.62 1067.62 894.501 1067.62 680.94C1067.62 467.379 894.48 294.262 680.94 294.262Z" fill="#FF009D"/>
<path d="M680.94 281.626C734.859 281.626 787.144 292.188 836.37 312.997C883.919 333.115 926.627 361.908 963.299 398.581C999.972 435.253 1028.77 477.962 1048.88 525.51C1069.69 574.736 1080.25 627.021 1080.25 680.94C1080.25 734.859 1069.69 787.144 1048.88 836.37C1028.77 883.919 999.972 926.627 963.299 963.299C926.627 999.972 883.919 1028.77 836.37 1048.88C787.144 1069.69 734.859 1080.25 680.94 1080.25C627.021 1080.25 574.736 1069.69 525.51 1048.88C477.962 1028.77 435.253 999.972 398.581 963.299C361.908 926.627 333.115 883.919 312.997 836.37C292.167 787.144 281.626 734.859 281.626 680.94C281.626 627.021 292.188 574.736 312.997 525.51C333.115 477.962 361.908 435.253 398.581 398.581C435.253 361.908 477.962 333.115 525.51 312.997C574.736 292.188 627.021 281.626 680.94 281.626ZM680.94 273.244C455.769 273.244 273.244 455.769 273.244 680.94C273.244 906.111 455.769 1088.64 680.94 1088.64C906.111 1088.64 1088.64 906.111 1088.64 680.94C1088.64 455.769 906.09 273.244 680.94 273.244Z" fill="#FF009D"/>
<path d="M680.94 260.607C737.688 260.607 792.74 271.714 844.543 293.634C894.585 314.799 939.535 345.101 978.157 383.723C1016.76 422.324 1047.06 467.274 1068.25 517.338C1090.17 569.161 1101.27 624.192 1101.27 680.94C1101.27 737.689 1090.17 792.74 1068.25 844.543C1047.08 894.585 1016.78 939.535 978.157 978.157C939.556 1016.76 894.606 1047.06 844.543 1068.25C792.719 1090.17 737.688 1101.27 680.94 1101.27C624.191 1101.27 569.14 1090.17 517.337 1068.25C467.295 1047.08 422.345 1016.76 383.723 978.157C345.122 939.556 314.82 894.606 293.634 844.543C271.714 792.719 260.607 737.689 260.607 680.94C260.607 624.192 271.714 569.14 293.634 517.338C314.799 467.295 345.101 422.345 383.723 383.723C422.324 345.122 467.274 314.82 517.337 293.634C569.14 271.714 624.191 260.607 680.94 260.607ZM680.94 252.225C444.181 252.225 252.225 444.16 252.225 680.94C252.225 917.72 444.16 1109.66 680.94 1109.66C917.72 1109.66 1109.66 917.72 1109.66 680.94C1109.66 444.16 917.699 252.225 680.94 252.225Z" fill="#FF009D"/>
<path d="M680.94 239.588C740.518 239.588 798.314 251.261 852.736 274.27C905.294 296.505 952.486 328.316 993.015 368.865C1033.54 409.394 1065.38 456.607 1087.61 509.144C1110.62 563.545 1122.29 621.341 1122.29 680.94C1122.29 740.538 1110.62 798.314 1087.61 852.736C1065.38 905.294 1033.56 952.486 993.015 993.015C952.486 1033.54 905.273 1065.38 852.736 1087.61C798.335 1110.62 740.538 1122.29 680.94 1122.29C621.341 1122.29 563.566 1110.62 509.144 1087.61C456.586 1065.38 409.394 1033.56 368.865 993.015C328.337 952.486 296.505 905.273 274.27 852.736C251.261 798.335 239.588 740.538 239.588 680.94C239.588 621.341 251.261 563.566 274.27 509.144C296.505 456.586 328.316 409.394 368.865 368.865C409.394 328.337 456.607 296.505 509.144 274.27C563.545 251.261 621.341 239.588 680.94 239.588ZM680.94 231.206C432.571 231.206 231.206 432.55 231.206 680.94C231.206 929.33 432.55 1130.67 680.94 1130.67C929.309 1130.67 1130.67 929.33 1130.67 680.94C1130.67 432.55 929.309 231.206 680.94 231.206Z" fill="#FF009D"/>
<path d="M680.94 218.57C743.367 218.57 803.909 230.787 860.909 254.907C915.96 278.189 965.416 311.53 1007.87 354.007C1050.33 396.464 1083.67 445.92 1106.97 500.971C1131.07 557.971 1143.31 618.512 1143.31 680.94C1143.31 743.367 1131.09 803.909 1106.97 860.909C1083.69 915.96 1050.35 965.416 1007.87 1007.87C965.395 1050.33 915.96 1083.67 860.909 1106.97C803.909 1131.07 743.367 1143.31 680.94 1143.31C618.512 1143.31 557.971 1131.09 500.971 1106.97C445.92 1083.69 396.464 1050.35 354.007 1007.87C311.551 965.395 278.21 915.96 254.907 860.909C230.808 803.909 218.57 743.367 218.57 680.94C218.57 618.512 230.787 557.971 254.907 500.971C278.189 445.92 311.53 396.464 354.007 354.007C396.464 311.551 445.92 278.21 500.971 254.907C557.95 230.787 618.512 218.57 680.94 218.57ZM680.94 210.187C420.961 210.187 210.187 420.941 210.187 680.94C210.187 940.939 420.941 1151.69 680.94 1151.69C940.939 1151.69 1151.67 940.918 1151.67 680.94C1151.67 420.961 940.919 210.187 680.94 210.187Z" fill="#FF009D"/>
<path d="M680.94 197.551C746.197 197.551 809.504 210.334 869.082 235.544C926.648 259.895 978.346 294.744 1022.73 339.15C1067.14 383.555 1101.99 435.232 1126.34 492.798C1151.55 552.397 1164.33 615.683 1164.33 680.94C1164.33 746.197 1151.55 809.504 1126.34 869.082C1101.99 926.648 1067.14 978.346 1022.73 1022.73C978.325 1067.11 926.648 1101.99 869.082 1126.34C809.483 1151.55 746.197 1164.33 680.94 1164.33C615.683 1164.33 552.376 1151.55 492.798 1126.34C435.232 1101.99 383.534 1067.14 339.15 1022.73C294.765 978.325 259.895 926.648 235.544 869.082C210.334 809.483 197.551 746.197 197.551 680.94C197.551 615.683 210.334 552.376 235.544 492.798C259.895 435.232 294.744 383.534 339.15 339.15C383.555 294.744 435.232 259.895 492.798 235.544C552.376 210.334 615.663 197.551 680.94 197.551ZM680.94 189.169C409.352 189.169 189.169 409.331 189.169 680.94C189.169 952.549 409.331 1172.69 680.94 1172.69C952.549 1172.69 1172.69 952.528 1172.69 680.94C1172.69 409.352 952.528 189.169 680.94 189.169Z" fill="#FF009D"/>
<path d="M680.94 176.532C749.047 176.532 815.1 189.86 877.276 216.16C937.335 241.558 991.276 277.938 1037.61 324.25C1083.94 370.584 1120.3 424.524 1145.7 484.583C1172 546.76 1185.33 612.812 1185.33 680.919C1185.33 749.026 1172 815.079 1145.7 877.255C1120.3 937.314 1083.92 991.255 1037.61 1037.59C991.276 1083.92 937.335 1120.28 877.276 1145.68C815.1 1171.98 749.047 1185.31 680.94 1185.31C612.833 1185.31 546.781 1171.98 484.605 1145.68C424.545 1120.28 370.605 1083.9 324.271 1037.59C277.938 991.255 241.579 937.314 216.181 877.255C189.881 815.079 176.553 749.026 176.553 680.919C176.553 612.812 189.881 546.76 216.181 484.583C241.579 424.524 277.959 370.584 324.271 324.25C370.605 277.917 424.545 241.558 484.605 216.16C546.781 189.86 612.833 176.532 680.94 176.532ZM680.94 168.15C397.742 168.15 168.15 397.721 168.15 680.94C168.15 964.159 397.721 1193.73 680.94 1193.73C964.159 1193.73 1193.73 964.159 1193.73 680.94C1193.73 397.721 964.138 168.15 680.94 168.15Z" fill="#FF009D"/>
<path d="M680.94 155.513C751.876 155.513 820.674 169.407 885.448 196.797C948.023 223.264 1004.21 261.152 1052.47 309.392C1100.73 357.654 1138.62 413.836 1165.06 476.411C1192.45 541.185 1206.35 609.983 1206.35 680.919C1206.35 751.855 1192.45 820.653 1165.06 885.427C1138.6 948.002 1100.71 1004.18 1052.47 1052.45C1004.21 1100.71 948.023 1138.6 885.448 1165.04C820.674 1192.43 751.876 1206.32 680.94 1206.32C610.004 1206.32 541.206 1192.43 476.432 1165.04C413.858 1138.57 357.675 1100.69 309.413 1052.45C261.152 1004.18 223.264 948.002 196.818 885.427C169.428 820.653 155.535 751.855 155.535 680.919C155.535 609.983 169.428 541.185 196.818 476.411C223.285 413.836 261.173 357.654 309.413 309.392C357.675 261.131 413.858 223.243 476.432 196.797C541.185 169.407 610.004 155.513 680.94 155.513ZM680.94 147.131C386.133 147.131 147.131 386.112 147.131 680.94C147.131 975.768 386.112 1214.75 680.94 1214.75C975.768 1214.75 1214.75 975.768 1214.75 680.94C1214.75 386.112 975.747 147.131 680.94 147.131Z" fill="#FF009D"/>
<path d="M680.94 134.495C754.705 134.495 826.269 148.933 893.642 177.433C958.71 204.948 1017.16 244.366 1067.35 294.535C1117.53 344.724 1156.93 403.17 1184.45 468.238C1212.95 535.59 1227.39 607.154 1227.39 680.94C1227.39 754.705 1212.95 826.269 1184.45 893.642C1156.93 958.71 1117.51 1017.16 1067.35 1067.35C1017.16 1117.53 958.71 1156.93 893.642 1184.45C826.29 1212.95 754.726 1227.39 680.94 1227.39C607.154 1227.39 535.611 1212.95 468.238 1184.45C403.17 1156.93 344.724 1117.51 294.535 1067.35C244.345 1017.16 204.948 958.71 177.433 893.642C148.933 826.29 134.495 754.726 134.495 680.94C134.495 607.175 148.933 535.611 177.433 468.238C204.948 403.17 244.366 344.724 294.535 294.535C344.724 244.345 403.17 204.948 468.238 177.433C535.59 148.933 607.154 134.495 680.94 134.495ZM680.94 126.112C374.523 126.112 126.112 374.523 126.112 680.94C126.112 987.357 374.523 1235.77 680.94 1235.77C987.357 1235.77 1235.77 987.357 1235.77 680.94C1235.77 374.523 987.357 126.112 680.94 126.112Z" fill="#FF009D"/>
<path d="M680.94 113.476C757.555 113.476 831.864 128.48 901.815 158.07C969.377 186.654 1030.06 227.56 1082.18 279.677C1134.3 331.794 1175.21 392.482 1203.79 460.044C1233.38 529.995 1248.38 604.304 1248.38 680.919C1248.38 757.534 1233.38 831.843 1203.79 901.794C1175.21 969.356 1134.3 1030.04 1082.18 1082.16C1030.06 1134.28 969.377 1175.21 901.815 1203.77C831.864 1233.36 757.555 1248.36 680.94 1248.36C604.325 1248.36 530.016 1233.36 460.065 1203.77C392.503 1175.18 331.815 1134.28 279.698 1082.16C227.581 1030.04 186.654 969.356 158.091 901.794C128.501 831.843 113.497 757.534 113.497 680.919C113.497 604.304 128.501 529.995 158.091 460.044C186.675 392.482 227.581 331.794 279.698 279.677C331.815 227.56 392.503 186.633 460.065 158.07C530.016 128.48 604.325 113.476 680.94 113.476ZM680.94 105.094C362.914 105.094 105.094 362.914 105.094 680.94C105.094 998.966 362.914 1256.79 680.94 1256.79C998.966 1256.79 1256.79 998.966 1256.79 680.94C1256.77 362.914 998.945 105.094 680.94 105.094Z" fill="#FF009D"/>
<path d="M680.94 92.4573C760.384 92.4573 837.459 108.007 909.988 138.707C980.064 168.338 1042.99 210.774 1097.04 264.819C1151.08 318.864 1193.52 381.795 1223.15 451.871C1253.83 524.421 1269.4 601.475 1269.4 680.919C1269.4 760.363 1253.85 837.438 1223.15 909.967C1193.52 980.043 1151.08 1042.97 1097.04 1097.02C1042.99 1151.06 980.064 1193.5 909.988 1223.13C837.438 1253.81 760.384 1269.38 680.94 1269.38C601.496 1269.38 524.421 1253.83 451.892 1223.13C381.816 1193.5 318.885 1151.06 264.84 1097.02C210.795 1042.97 168.359 980.043 138.728 909.967C108.048 837.417 92.4783 760.363 92.4783 680.919C92.4783 601.475 108.028 524.4 138.728 451.871C168.359 381.795 210.795 318.864 264.84 264.819C318.885 210.774 381.816 168.338 451.892 138.707C524.421 108.007 601.475 92.4573 680.94 92.4573ZM680.94 84.0749C351.304 84.0749 84.075 351.304 84.075 680.94C84.075 1010.58 351.304 1277.81 680.94 1277.81C1010.58 1277.81 1277.81 1010.58 1277.81 680.94C1277.81 351.304 1010.55 84.0749 680.94 84.0749Z" fill="#FF009D"/>
<path d="M680.94 71.4385C763.234 71.4385 843.034 87.5536 918.181 119.323C990.752 150.023 1055.95 193.967 1111.92 249.941C1167.89 305.914 1211.84 371.107 1242.54 443.678C1274.33 518.804 1290.42 598.625 1290.42 680.919C1290.42 763.213 1274.31 843.013 1242.54 918.16C1211.84 990.731 1167.89 1055.92 1111.92 1111.9C1055.95 1167.87 990.752 1211.81 918.181 1242.52C843.055 1274.31 763.234 1290.4 680.94 1290.4C598.646 1290.4 518.846 1274.28 443.699 1242.52C371.128 1211.81 305.935 1167.87 249.962 1111.9C193.989 1055.92 150.044 990.731 119.344 918.16C87.5537 843.034 71.4596 763.213 71.4596 680.919C71.4596 598.625 87.5746 518.825 119.344 443.678C150.044 371.107 193.989 305.914 249.962 249.941C305.935 193.967 371.128 150.023 443.699 119.323C518.825 87.5536 598.646 71.4385 680.94 71.4385ZM680.94 63.0562C339.695 63.0562 63.0563 339.695 63.0563 680.94C63.0563 1022.19 339.695 1298.8 680.94 1298.8C1022.19 1298.8 1298.82 1022.16 1298.82 680.919C1298.82 339.674 1022.16 63.0562 680.94 63.0562Z" fill="#FF009D"/>
<path d="M680.94 50.4198C766.063 50.4198 848.629 67.0797 926.354 99.9595C1001.44 131.708 1068.85 177.182 1126.78 235.083C1184.68 292.984 1230.15 360.42 1261.9 435.505C1294.78 513.23 1311.44 595.796 1311.44 680.919C1311.44 766.042 1294.78 848.608 1261.9 926.333C1230.15 1001.42 1184.68 1068.83 1126.78 1126.76C1068.88 1184.66 1001.44 1230.13 926.354 1261.88C848.629 1294.76 766.063 1311.42 680.94 1311.42C595.817 1311.42 513.251 1294.76 435.526 1261.88C360.441 1230.13 293.026 1184.66 235.104 1126.76C177.203 1068.85 131.729 1001.42 99.9804 926.333C67.1007 848.608 50.4408 766.042 50.4408 680.919C50.4408 595.796 67.1007 513.23 99.9804 435.505C131.729 360.42 177.203 293.005 235.104 235.083C293.005 177.182 360.441 131.708 435.526 99.9595C513.23 67.0797 595.817 50.4198 680.94 50.4198ZM680.94 42.0375C328.085 42.0375 42.0375 328.085 42.0375 680.94C42.0375 1033.79 328.085 1319.84 680.94 1319.84C1033.79 1319.84 1319.84 1033.79 1319.84 680.94C1319.84 328.085 1033.77 42.0375 680.94 42.0375Z" fill="#FF009D"/>
<path d="M680.94 29.4011C768.892 29.4011 854.224 46.6268 934.548 80.5963C1012.13 113.413 1081.8 160.396 1141.65 220.225C1201.48 280.054 1248.47 349.732 1281.28 427.332C1315.25 507.656 1332.48 592.967 1332.48 680.94C1332.48 768.913 1315.25 854.224 1281.28 934.548C1248.47 1012.13 1201.48 1081.8 1141.65 1141.65C1081.83 1201.48 1012.15 1248.47 934.548 1281.28C854.224 1315.25 768.913 1332.48 680.94 1332.48C592.967 1332.48 507.656 1315.25 427.332 1281.28C349.753 1248.47 280.075 1201.48 220.225 1141.65C160.396 1081.83 113.413 1012.15 80.5963 934.548C46.6269 854.224 29.4011 768.913 29.4011 680.94C29.4011 592.967 46.6269 507.656 80.5963 427.332C113.413 349.753 160.396 280.075 220.225 220.225C280.054 160.396 349.733 113.413 427.332 80.5963C507.656 46.6268 592.967 29.4011 680.94 29.4011ZM680.94 21.0187C316.476 21.0187 21.0188 316.476 21.0188 680.94C21.0188 1045.4 316.476 1340.86 680.94 1340.86C1045.4 1340.86 1340.86 1045.4 1340.86 680.94C1340.86 316.476 1045.38 21.0187 680.94 21.0187Z" fill="#FF009D"/>
<path d="M680.94 8.38235C771.742 8.38235 859.819 26.1529 942.721 61.233C1022.79 95.0977 1094.73 143.59 1156.49 205.368C1218.27 267.145 1266.76 339.066 1300.63 419.138C1335.69 502.04 1353.48 590.117 1353.48 680.919C1353.48 771.721 1335.71 859.798 1300.63 942.7C1266.76 1022.79 1218.25 1094.71 1156.49 1156.47C1094.71 1218.25 1022.79 1266.74 942.721 1300.6C859.819 1335.66 771.742 1353.46 680.94 1353.46C590.138 1353.46 502.061 1335.69 419.159 1300.6C339.066 1266.76 267.145 1218.27 205.368 1156.49C143.59 1094.71 95.0977 1022.79 61.233 942.721C26.1529 859.798 8.38235 771.721 8.38235 680.94C8.38235 590.159 26.1529 502.061 61.233 419.159C95.0977 339.066 143.59 267.145 205.368 205.368C267.145 143.59 339.066 95.0977 419.138 61.233C502.061 26.1529 590.138 8.38235 680.94 8.38235ZM680.94 0C304.866 0 0 304.866 0 680.94C0 1057.01 304.866 1361.86 680.94 1361.86C1057.01 1361.86 1361.88 1056.99 1361.88 680.94C1361.88 304.887 1056.99 0 680.94 0Z" fill="#FF009D"/>
</svg>
