<svg width="1412" height="581" viewBox="0 0 1412 581" fill="none" xmlns="http://www.w3.org/2000/svg">
<path d="M1216.34 538.299C1188.69 538.299 1169.15 532.288 1157.73 520.266C1146.31 508.243 1140.6 492.013 1140.6 471.575C1140.6 451.738 1146.01 431 1156.83 409.36C1168.25 387.118 1182.37 366.079 1199.2 346.243C1209.42 334.22 1222.05 321.597 1237.08 308.372C1252.1 295.148 1268.33 282.825 1285.77 271.404C1303.2 259.381 1320.33 249.764 1337.16 242.55C1354.59 234.736 1369.92 230.828 1383.15 230.828C1390.36 230.828 1396.97 232.632 1402.98 236.238C1408.99 239.244 1412 246.157 1412 256.977C1412 272.005 1404.79 286.432 1390.36 300.257C1375.93 313.482 1359.7 325.805 1341.67 337.226C1321.23 350.45 1299.89 361.571 1277.65 370.588C1255.41 379.605 1236.17 386.517 1219.94 391.326C1210.93 405.753 1203.71 420.48 1198.3 435.508C1192.89 450.536 1190.19 465.264 1190.19 479.69C1190.19 495.319 1193.79 506.139 1201.01 512.151C1208.82 517.561 1217.84 520.266 1228.06 520.266C1246.69 520.266 1263.52 516.058 1278.55 507.642C1294.18 498.625 1308.61 487.204 1321.83 473.379C1335.06 459.553 1347.68 445.727 1359.7 431.902C1362.11 431.902 1363.31 433.705 1363.31 437.312C1363.31 442.722 1362.11 446.929 1359.7 449.935C1347.68 463.761 1334.46 477.586 1320.03 491.412C1306.2 505.238 1290.88 516.659 1274.04 525.676C1257.21 534.091 1237.98 538.299 1216.34 538.299ZM1230.76 378.703C1246.39 373.293 1264.73 365.779 1285.77 356.161C1307.41 346.543 1326.34 336.024 1342.57 324.602C1346.18 322.198 1352.49 317.389 1361.51 310.176C1370.52 302.361 1378.94 293.946 1386.75 284.929C1394.57 275.311 1398.47 266.895 1398.47 259.682C1398.47 250.064 1393.67 245.255 1384.05 245.255C1373.83 245.255 1362.11 249.763 1348.88 258.78C1336.26 267.797 1326.04 275.611 1318.23 282.224C1303.8 295.448 1288.77 310.176 1273.14 326.406C1257.51 342.636 1243.39 360.068 1230.76 378.703Z" fill="white"/>
<path d="M920.215 531.988C905.788 531.988 895.569 528.982 889.558 522.971C883.547 516.359 880.541 508.243 880.541 498.626C880.541 488.407 882.945 477.286 887.754 465.264C892.563 453.241 898.274 441.219 904.886 429.197C916.307 409.961 930.434 390.725 947.265 371.49C964.697 352.254 982.43 334.521 1000.46 318.291C1019.1 302.061 1035.33 288.536 1049.15 277.716C1062.38 266.294 1076.2 257.278 1090.63 250.665C1082.82 251.266 1075 251.868 1067.19 252.469C1059.97 253.07 1053.06 253.671 1046.45 254.272C1033.83 254.873 1022.1 256.376 1011.28 258.78C1001.06 260.584 991.447 264.19 982.43 269.601C985.436 259.382 991.748 250.966 1001.37 244.354C1011.58 237.14 1021.8 233.233 1032.02 232.632C1042.24 231.43 1054.86 231.43 1069.89 232.632C1084.92 233.834 1098.75 234.435 1111.37 234.435C1114.98 234.435 1119.18 234.135 1123.99 233.534C1129.4 232.932 1133.61 231.43 1136.62 229.025C1136.62 235.036 1132.11 240.146 1123.09 244.354C1119.48 246.157 1115.88 247.96 1112.27 249.764C1108.66 251.567 1105.66 253.37 1103.25 255.174C1097.24 259.382 1091.23 264.19 1085.22 269.601C1079.81 275.011 1074.1 280.721 1068.09 286.732C1021.8 331.816 981.529 384.714 947.265 445.427C941.855 455.045 937.046 464.362 932.838 473.379C929.231 481.794 927.428 488.707 927.428 494.117C927.428 500.73 931.035 504.036 938.248 504.036C949.068 504.036 962.593 498.926 978.823 488.707C995.054 478.488 1012.79 464.663 1032.02 447.23C1051.26 429.798 1070.19 409.961 1088.83 387.72C1095.44 379.905 1103.86 368.484 1114.07 353.456C1124.89 338.428 1134.81 323.701 1143.83 309.274C1153.45 294.847 1159.76 284.929 1162.76 279.519C1176.59 256.075 1190.12 241.949 1203.34 237.14C1217.17 231.73 1229.79 229.626 1241.21 230.829C1237 236.84 1229.19 246.758 1217.77 260.584C1206.95 274.409 1194.02 290.038 1179 307.471C1164.57 324.903 1149.84 342.335 1134.81 359.768C1120.39 376.599 1107.16 391.627 1095.14 404.852C1083.72 418.076 1075.6 427.393 1070.79 432.803C1055.17 449.034 1038.94 464.963 1022.1 480.592C1005.87 495.62 989.042 507.943 971.61 517.561C954.779 527.179 937.647 531.988 920.215 531.988Z" fill="white"/>
<path d="M636.596 532.889C614.355 532.889 603.234 520.266 603.234 495.019C603.234 480.592 607.442 463.46 615.857 443.623C624.273 423.186 636.896 401.846 653.728 379.605C665.75 364.577 680.477 348.647 697.91 331.816C715.342 314.384 734.277 297.853 754.715 282.224C775.754 266.595 797.094 253.971 818.734 244.354C840.374 234.135 861.413 229.025 881.851 229.025C890.868 229.025 897.18 230.528 900.786 233.534C904.393 235.938 906.797 238.643 908 241.649C909.202 244.053 909.202 245.856 908 247.059C907.398 248.261 906.497 248.561 905.295 247.96C902.89 246.758 898.081 246.157 890.868 246.157C869.228 246.157 843.38 256.677 813.324 277.716C783.869 298.153 754.715 324.903 725.861 357.964C705.424 380.807 688.592 403.349 675.368 425.59C662.143 447.23 653.427 465.264 649.219 479.69C648.017 484.499 647.416 488.707 647.416 492.314C647.416 500.729 650.722 504.937 657.334 504.937C661.542 504.937 667.253 503.134 674.466 499.527C681.679 495.319 690.997 488.407 702.418 478.789C720.451 463.16 738.184 444.826 755.617 423.787C773.65 402.748 791.383 381.408 808.815 359.768C826.248 337.527 843.079 317.089 859.309 298.454C876.14 279.819 892.07 265.693 907.098 256.075C926.334 243.452 939.558 236.239 946.772 234.435C954.586 232.632 960.898 231.43 965.707 230.829C962.701 234.435 956.089 242.851 945.87 256.075C935.651 269.3 924.831 283.426 913.41 298.454C901.988 312.881 892.671 324.903 885.458 334.521C874.638 350.15 862.916 366.981 850.292 385.015C838.27 403.048 827.15 420.18 816.931 436.41C807.313 452.039 800.7 464.963 797.094 475.182C794.088 485.401 792.585 492.915 792.585 497.724C792.585 507.342 796.493 512.151 804.307 512.151C809.717 512.151 816.029 510.047 823.242 505.839C831.057 501.03 838.871 495.62 846.686 489.609C856.905 481.193 866.523 472.477 875.539 463.46C884.556 453.842 893.873 443.323 903.491 431.902C905.896 431.902 907.098 433.705 907.098 437.312C907.098 442.722 905.896 446.93 903.491 449.935C895.677 458.952 886.059 468.87 874.638 479.69C863.818 490.511 852.997 500.128 842.177 508.544C834.363 515.156 825.346 520.867 815.127 525.676C804.908 530.485 794.99 532.889 785.372 532.889C771.546 532.889 761.928 529.583 756.518 522.971C751.108 516.359 748.403 507.943 748.403 497.724C748.403 485.702 751.108 472.778 756.518 458.952C761.928 444.525 767.94 431 774.552 418.377C766.737 427.995 756.819 439.716 744.797 453.542C732.774 466.766 721.954 477.887 712.336 486.904C699.112 498.926 686.488 509.746 674.466 519.364C662.444 528.381 649.82 532.889 636.596 532.889Z" fill="white"/>
<path d="M131.644 580.678C130.442 580.678 129.841 580.377 129.841 579.776C129.841 579.175 132.245 576.47 137.054 571.661C165.908 550.021 194.461 522.67 222.713 489.609C251.567 455.946 278.317 419.579 302.962 380.506C327.608 340.833 348.647 300.257 366.079 258.78C384.113 217.303 396.736 177.63 403.95 139.759C405.753 131.945 406.955 124.431 407.556 117.218C408.158 110.004 408.458 103.091 408.458 96.4791C408.458 72.4345 403.349 53.4993 393.13 39.6737C382.911 25.2469 366.981 18.0334 345.341 18.0334C318.892 18.6346 291.842 26.1486 264.19 40.5753C236.539 54.401 210.09 73.0356 184.843 96.4791C159.596 119.923 136.153 146.372 114.513 175.826C93.4735 204.68 75.7406 234.736 61.3138 265.994C46.887 297.252 37.2692 327.308 32.4603 356.161C31.258 363.375 30.3563 370.287 29.7552 376.9C29.1541 382.911 28.8536 388.321 28.8536 393.13C28.8536 413.568 32.7608 427.694 40.5753 435.509C48.9909 442.722 59.811 446.329 73.0356 446.329C92.2713 446.329 113.611 440.317 137.054 428.295C161.099 416.273 185.144 399.442 209.188 377.801C233.834 356.161 256.376 331.215 276.814 302.962C297.252 274.109 313.782 243.151 326.406 210.09C339.029 176.428 345.642 141.863 346.243 106.397C346.243 101.589 347.144 99.1841 348.948 99.1841C350.751 99.1841 352.855 101.288 355.259 105.496C357.664 109.704 358.866 114.212 358.866 119.021C358.866 149.077 352.855 180.335 340.833 212.795C329.411 244.654 313.482 275.612 293.044 305.667C273.207 335.723 250.966 362.773 226.32 386.818C201.674 410.262 176.127 429.197 149.678 443.624C123.229 457.449 97.9819 464.362 73.9372 464.362C52.8982 464.362 35.1653 457.449 20.7385 443.624C6.91283 429.197 0 407.857 0 379.605C0 374.796 0.601117 369.686 1.80335 364.276C2.40446 358.265 3.00558 352.254 3.6067 346.243C8.41562 317.389 18.6346 287.333 34.2636 256.075C50.4937 224.216 70.3306 193.559 93.7741 164.105C117.218 134.65 143.066 108.201 171.318 84.7573C200.172 60.7127 229.626 41.7776 259.682 27.9519C289.738 13.5251 318.892 6.31174 347.144 6.31174C381.408 6.31174 407.256 15.9296 424.688 35.1653C442.121 54.401 450.837 79.9484 450.837 111.808C450.837 117.819 450.536 123.83 449.935 129.841C449.334 135.852 448.432 142.164 447.23 148.776C437.612 198.669 421.082 247.359 397.638 294.847C374.796 342.336 346.844 386.518 313.782 427.393C339.63 400.343 365.779 371.49 392.228 340.833C418.677 310.176 443.924 280.12 467.969 250.665C492.614 221.211 514.255 194.762 532.889 171.318C556.934 141.863 577.071 119.923 593.301 105.496C610.133 90.4679 624.559 82.954 636.582 82.954C649.205 82.954 655.517 89.5663 655.517 102.791C655.517 113.611 651.91 127.136 644.697 143.366C638.084 158.995 630.871 173.422 623.056 186.646C615.843 199.871 611.034 208.587 608.63 212.795C602.017 224.817 592.4 241.949 579.776 264.19C567.153 285.831 552.726 309.875 536.496 336.324C520.867 362.172 504.036 388.321 486.002 414.77C467.969 441.219 450.236 464.963 432.803 486.002C459.854 461.356 490.21 431.601 523.872 396.737C557.535 361.271 590.596 324.603 623.056 286.732C649.506 255.474 678.66 223.315 710.519 190.253C742.378 156.591 774.838 125.333 807.9 96.4791C841.562 67.6255 874.022 44.4826 905.28 27.0502C937.14 9.01673 966.594 0 993.644 0C1005.67 0 1017.69 1.80333 1029.71 5.41002C1041.73 8.4156 1051.65 14.4268 1059.47 23.4435C1067.28 31.8591 1071.19 43.8815 1071.19 59.5105C1071.19 67.325 1068.48 75.7406 1063.07 84.7573C1058.26 93.173 1051.65 98.2825 1043.24 100.086C1046.24 97.0802 1048.65 92.2713 1050.45 85.659C1052.25 79.0467 1053.15 73.3361 1053.15 68.5272C1053.15 42.0781 1032.72 28.8536 991.841 28.8536C965.392 28.8536 936.538 37.2692 905.28 54.1004C874.623 70.9317 843.065 93.173 810.605 120.824C778.746 148.476 747.487 178.231 716.831 210.09C686.174 241.348 657.921 272.005 632.073 302.061C599.613 339.33 566.852 375.397 533.791 410.262C500.729 444.525 470.073 473.679 441.82 497.724C413.568 521.769 390.124 537.398 371.49 544.611C367.883 547.016 364.276 548.819 360.669 550.021C357.063 551.824 353.757 552.726 350.751 552.726H349.849C345.04 552.726 342.636 550.622 342.636 546.414C342.636 543.409 343.237 540.403 344.439 537.398C346.243 534.392 348.347 531.086 350.751 527.479C368.183 502.833 386.517 476.685 405.753 449.034C425.59 421.382 445.427 393.731 465.264 366.08C493.516 326.406 520.867 285.831 547.316 244.354C573.765 202.877 597.208 162.001 617.646 121.726C621.253 115.715 623.056 110.305 623.056 105.496C623.056 102.49 621.854 100.987 619.45 100.987C615.843 100.987 610.734 103.392 604.121 108.201C596.307 115.414 585.787 127.136 572.563 143.366C559.338 159.596 546.414 175.526 533.791 191.155C513.353 215.801 490.51 243.151 465.264 273.207C440.618 303.263 414.469 333.619 386.818 364.276C359.768 394.933 332.718 423.787 305.667 450.837C279.218 477.286 253.971 499.227 229.927 516.659C225.719 520.867 221.211 525.075 216.402 529.283C211.593 532.889 206.784 536.797 201.975 541.004C188.75 551.824 174.925 561.142 160.498 568.956C146.071 576.771 136.453 580.678 131.644 580.678Z" fill="white"/>
</svg>
